<mxfile host="app.diagrams.net" agent="Mozilla/5.0 (Macintosh; Intel Mac OS X 10.15; rv:141.0) Gecko/20100101 Firefox/141.0" version="28.0.7">
  <diagram name="Page-1" id="9GyxsH42c4VcyAcpglJP">
    <mxGraphModel dx="2066" dy="1134" grid="1" gridSize="10" guides="1" tooltips="1" connect="1" arrows="1" fold="1" page="1" pageScale="1" pageWidth="1100" pageHeight="850" math="0" shadow="0">
      <root>
        <mxCell id="0" />
        <mxCell id="1" parent="0" />
        <mxCell id="RNneaJGSUmk9QzHPtBFO-18" style="edgeStyle=orthogonalEdgeStyle;rounded=0;orthogonalLoop=1;jettySize=auto;html=1;exitX=0;exitY=0.5;exitDx=0;exitDy=0;entryX=0.15;entryY=0.667;entryDx=0;entryDy=0;entryPerimeter=0;endArrow=none;endFill=0;" parent="1" source="RNneaJGSUmk9QzHPtBFO-17" target="OcEBmbgKSJ9BpO2-ke-Y-3" edge="1">
          <mxGeometry relative="1" as="geometry">
            <mxPoint x="92" y="420.5" as="targetPoint" />
          </mxGeometry>
        </mxCell>
        <mxCell id="OcEBmbgKSJ9BpO2-ke-Y-18" value="" style="rounded=0;whiteSpace=wrap;html=1;fillColor=none;" parent="1" vertex="1">
          <mxGeometry x="40" y="70" width="360" height="370" as="geometry" />
        </mxCell>
        <mxCell id="OcEBmbgKSJ9BpO2-ke-Y-87" style="edgeStyle=orthogonalEdgeStyle;rounded=0;orthogonalLoop=1;jettySize=auto;html=1;exitX=0.25;exitY=1;exitDx=0;exitDy=0;entryX=0;entryY=0.5;entryDx=0;entryDy=0;endArrow=none;endFill=0;" parent="1" edge="1">
          <mxGeometry relative="1" as="geometry">
            <mxPoint x="520" y="550" as="sourcePoint" />
          </mxGeometry>
        </mxCell>
        <mxCell id="OcEBmbgKSJ9BpO2-ke-Y-3" value="/BluePointInstancerAsset" style="rounded=0;whiteSpace=wrap;html=1;fontSize=14;fontStyle=1" parent="1" vertex="1">
          <mxGeometry x="60" y="190.5" width="200" height="30" as="geometry" />
        </mxCell>
        <mxCell id="OcEBmbgKSJ9BpO2-ke-Y-73" style="edgeStyle=orthogonalEdgeStyle;rounded=0;orthogonalLoop=1;jettySize=auto;html=1;exitX=0.25;exitY=1;exitDx=0;exitDy=0;entryX=0;entryY=0.5;entryDx=0;entryDy=0;endArrow=none;endFill=0;" parent="1" source="OcEBmbgKSJ9BpO2-ke-Y-5" target="OcEBmbgKSJ9BpO2-ke-Y-69" edge="1">
          <mxGeometry relative="1" as="geometry" />
        </mxCell>
        <mxCell id="OcEBmbgKSJ9BpO2-ke-Y-5" value="Prototypes" style="rounded=0;whiteSpace=wrap;html=1;fontSize=14;fontStyle=1" parent="1" vertex="1">
          <mxGeometry x="110" y="240.5" width="120" height="30" as="geometry" />
        </mxCell>
        <mxCell id="OcEBmbgKSJ9BpO2-ke-Y-19" value="bluePointInstancerAsset.usda" style="text;strokeColor=none;align=center;fillColor=none;html=1;verticalAlign=middle;whiteSpace=wrap;rounded=0;" parent="1" vertex="1">
          <mxGeometry x="190" y="40" width="60" height="30" as="geometry" />
        </mxCell>
        <mxCell id="OcEBmbgKSJ9BpO2-ke-Y-54" style="edgeStyle=orthogonalEdgeStyle;rounded=0;orthogonalLoop=1;jettySize=auto;html=1;exitX=0.25;exitY=1;exitDx=0;exitDy=0;entryX=0;entryY=0.5;entryDx=0;entryDy=0;endArrow=none;endFill=0;" parent="1" source="OcEBmbgKSJ9BpO2-ke-Y-50" target="OcEBmbgKSJ9BpO2-ke-Y-51" edge="1">
          <mxGeometry relative="1" as="geometry" />
        </mxCell>
        <mxCell id="OcEBmbgKSJ9BpO2-ke-Y-50" value="/class_Prop" style="rounded=0;whiteSpace=wrap;html=1;fontSize=14;fontStyle=1" parent="1" vertex="1">
          <mxGeometry x="60" y="90" width="120" height="30" as="geometry" />
        </mxCell>
        <mxCell id="OcEBmbgKSJ9BpO2-ke-Y-51" value=".color = blue" style="rounded=0;whiteSpace=wrap;html=1;fontSize=14;fontStyle=1" parent="1" vertex="1">
          <mxGeometry x="110" y="140" width="120" height="30" as="geometry" />
        </mxCell>
        <mxCell id="RNneaJGSUmk9QzHPtBFO-12" style="edgeStyle=orthogonalEdgeStyle;rounded=0;orthogonalLoop=1;jettySize=auto;html=1;exitX=1;exitY=0.5;exitDx=0;exitDy=0;entryX=0;entryY=0.5;entryDx=0;entryDy=0;strokeColor=#FF0000;" parent="1" source="OcEBmbgKSJ9BpO2-ke-Y-69" target="y3t4OPXZu8qg7-BvcKFN-3" edge="1">
          <mxGeometry relative="1" as="geometry">
            <mxPoint x="460" y="305.5" as="targetPoint" />
          </mxGeometry>
        </mxCell>
        <mxCell id="enrRWmIRUIeWXe09xudf-1" value="&amp;nbsp;references&amp;nbsp;" style="edgeLabel;html=1;align=center;verticalAlign=middle;resizable=0;points=[];" parent="RNneaJGSUmk9QzHPtBFO-12" vertex="1" connectable="0">
          <mxGeometry x="-0.2333" y="-1" relative="1" as="geometry">
            <mxPoint as="offset" />
          </mxGeometry>
        </mxCell>
        <mxCell id="y3t4OPXZu8qg7-BvcKFN-25" style="edgeStyle=orthogonalEdgeStyle;rounded=0;orthogonalLoop=1;jettySize=auto;html=1;exitX=0.25;exitY=1;exitDx=0;exitDy=0;entryX=0;entryY=0.5;entryDx=0;entryDy=0;endArrow=none;endFill=0;" parent="1" source="OcEBmbgKSJ9BpO2-ke-Y-69" target="y3t4OPXZu8qg7-BvcKFN-22" edge="1">
          <mxGeometry relative="1" as="geometry" />
        </mxCell>
        <mxCell id="OcEBmbgKSJ9BpO2-ke-Y-69" value="Prop" style="rounded=0;whiteSpace=wrap;html=1;fontSize=14;fontStyle=1" parent="1" vertex="1">
          <mxGeometry x="160" y="290.5" width="120" height="30" as="geometry" />
        </mxCell>
        <mxCell id="LYsyJ-0VvZp4TE6DjkxY-3" style="edgeStyle=orthogonalEdgeStyle;rounded=0;orthogonalLoop=1;jettySize=auto;html=1;exitX=0;exitY=0.5;exitDx=0;exitDy=0;entryX=0.16;entryY=0.967;entryDx=0;entryDy=0;entryPerimeter=0;endArrow=none;endFill=0;" parent="1" source="OcEBmbgKSJ9BpO2-ke-Y-5" target="OcEBmbgKSJ9BpO2-ke-Y-3" edge="1">
          <mxGeometry relative="1" as="geometry" />
        </mxCell>
        <mxCell id="RNneaJGSUmk9QzHPtBFO-17" value="PointInstancer" style="rounded=0;whiteSpace=wrap;html=1;fontSize=14;fontStyle=1" parent="1" vertex="1">
          <mxGeometry x="110" y="390" width="120" height="30" as="geometry" />
        </mxCell>
        <mxCell id="enrRWmIRUIeWXe09xudf-8" style="edgeStyle=orthogonalEdgeStyle;rounded=0;orthogonalLoop=1;jettySize=auto;html=1;exitX=0.25;exitY=1;exitDx=0;exitDy=0;entryX=0;entryY=0.5;entryDx=0;entryDy=0;endArrow=none;endFill=0;" parent="1" edge="1">
          <mxGeometry relative="1" as="geometry">
            <Array as="points">
              <mxPoint x="90" y="504.5" />
            </Array>
            <mxPoint x="90" y="470.5" as="sourcePoint" />
          </mxGeometry>
        </mxCell>
        <mxCell id="y3t4OPXZu8qg7-BvcKFN-1" value="" style="rounded=0;whiteSpace=wrap;html=1;fillColor=none;" parent="1" vertex="1">
          <mxGeometry x="440" y="220.5" width="260" height="169.5" as="geometry" />
        </mxCell>
        <mxCell id="y3t4OPXZu8qg7-BvcKFN-2" value="prop_group.usda" style="text;strokeColor=none;align=center;fillColor=none;html=1;verticalAlign=middle;whiteSpace=wrap;rounded=0;" parent="1" vertex="1">
          <mxGeometry x="541.1111111111111" y="190.5" width="57.77777777777777" height="27.073170731707318" as="geometry" />
        </mxCell>
        <mxCell id="y3t4OPXZu8qg7-BvcKFN-3" value="/Prop" style="rounded=0;whiteSpace=wrap;html=1;fontSize=14;fontStyle=1" parent="1" vertex="1">
          <mxGeometry x="460" y="290.5" width="120" height="30" as="geometry" />
        </mxCell>
        <mxCell id="y3t4OPXZu8qg7-BvcKFN-4" style="edgeStyle=orthogonalEdgeStyle;rounded=0;orthogonalLoop=1;jettySize=auto;html=1;exitX=1;exitY=0.5;exitDx=0;exitDy=0;entryX=1;entryY=0.5;entryDx=0;entryDy=0;fillColor=#e51400;strokeColor=#FF0000;" parent="1" source="y3t4OPXZu8qg7-BvcKFN-3" target="y3t4OPXZu8qg7-BvcKFN-10" edge="1">
          <mxGeometry relative="1" as="geometry">
            <Array as="points">
              <mxPoint x="620" y="306" />
              <mxPoint x="620" y="256" />
            </Array>
          </mxGeometry>
        </mxCell>
        <mxCell id="bisZbE54HwY24F_lqiF2-1" value="&amp;nbsp;inherits" style="edgeLabel;html=1;align=center;verticalAlign=middle;resizable=0;points=[];" vertex="1" connectable="0" parent="y3t4OPXZu8qg7-BvcKFN-4">
          <mxGeometry x="-0.0077" y="-2" relative="1" as="geometry">
            <mxPoint as="offset" />
          </mxGeometry>
        </mxCell>
        <mxCell id="y3t4OPXZu8qg7-BvcKFN-6" value=".color = red" style="rounded=0;whiteSpace=wrap;html=1;fontSize=14;fontStyle=1" parent="1" vertex="1">
          <mxGeometry x="510" y="340.5" width="120" height="30" as="geometry" />
        </mxCell>
        <mxCell id="y3t4OPXZu8qg7-BvcKFN-7" value="" style="endArrow=none;html=1;rounded=0;exitX=0.25;exitY=1;exitDx=0;exitDy=0;entryX=0;entryY=0.5;entryDx=0;entryDy=0;edgeStyle=orthogonalEdgeStyle;endFill=0;" parent="1" source="y3t4OPXZu8qg7-BvcKFN-3" target="y3t4OPXZu8qg7-BvcKFN-6" edge="1">
          <mxGeometry width="50" height="50" relative="1" as="geometry">
            <mxPoint x="620" y="640.5" as="sourcePoint" />
            <mxPoint x="670" y="590.5" as="targetPoint" />
          </mxGeometry>
        </mxCell>
        <mxCell id="y3t4OPXZu8qg7-BvcKFN-10" value="/class_Prop" style="rounded=0;whiteSpace=wrap;html=1;fontSize=14;fontStyle=1" parent="1" vertex="1">
          <mxGeometry x="460" y="240.5" width="120" height="30" as="geometry" />
        </mxCell>
        <mxCell id="y3t4OPXZu8qg7-BvcKFN-22" value=".color =&amp;nbsp;&lt;i&gt;blue&lt;/i&gt;" style="rounded=0;whiteSpace=wrap;html=1;fontSize=14;fontStyle=1" parent="1" vertex="1">
          <mxGeometry x="210" y="340.5" width="120" height="30" as="geometry" />
        </mxCell>
      </root>
    </mxGraphModel>
  </diagram>
</mxfile>
